<svg xmlns="http://www.w3.org/2000/svg" width="180" height="180" viewBox="0 0 180 180">
  <g fill="none" fill-rule="evenodd">
    <rect width="180" height="180" fill="#FFF" fill-rule="nonzero"/>
    <g transform="translate(30 73)">
      <path fill="#283862" fill-rule="nonzero" d="M110.896996,32 C107.616548,32 104.616486,30.8884548 102.449569,28.8700225 C100.192879,26.7680061 99,23.901933 99,20.5816788 C99,17.4577243 100.073222,14.5630114 102.021679,12.4306343 C104.043253,10.2183607 106.895048,9 110.051516,9 C113.152796,9 115.959068,10.1578852 117.953684,12.2602703 C120.191683,14.6195535 121.252443,18.0115917 120.949169,21.8272044 L104.6409,21.8272044 L104.663407,22.0311249 C105.039925,25.4286943 107.646939,27.7112769 111.150551,27.7112769 C114.090467,27.7112769 116.245049,26.0044411 117.152964,25.1330772 L120.356989,28.2301127 C118.220591,30.5592811 114.615125,32 110.896996,32 Z M110.136076,13.2884773 C107.337943,13.2884773 105.191626,15.2051337 104.916708,17.9492724 L104.89649,18.1513492 L115.073406,18.1513492 L115.060054,17.9549266 C114.873639,15.2074691 112.848886,13.2884773 110.136076,13.2884773 Z"/>
      <polygon fill="#283862" points="90 32 95.144 32 95.144 1 90 1"/>
      <polygon fill="#283862" points="76.896 32 76.896 14 69.104 14 69.104 32 64.032 32 64.032 14 59 14 59 10 64.032 10 64.032 4 69.104 4 69.104 10 76.896 10 76.896 4 81.968 4 81.968 10 87 10 87 14 81.968 14 81.968 32"/>
      <path fill="#283862" fill-rule="nonzero" d="M46.8967289,32 C43.6163766,32 40.6164127,30.8884548 38.4494753,28.8700225 C36.19289,26.7680061 35,23.901933 35,20.5816788 C35,17.4577243 36.0731051,14.5630114 38.0215812,12.4306343 C40.0433016,10.2183607 42.8951239,9 46.051622,9 C49.1529327,9 51.9592316,10.1578852 53.9537397,12.2603932 C56.1918868,14.6195535 57.2525302,18.0117146 56.9491259,21.8272044 L40.6408274,21.8272044 L40.663462,22.0311249 C41.0399834,25.4286943 43.6468951,27.7112769 47.1504135,27.7112769 C50.0903579,27.7112769 52.2450878,26.0044411 53.153139,25.1330772 L56.3571951,28.2301127 C54.2205219,30.5592811 50.6150209,32 46.8967289,32 Z M46.1361836,13.2884773 C43.3378957,13.2884773 41.1914312,15.2051337 40.916638,17.9492724 L40.8964195,18.1513492 L51.0734335,18.1513492 L51.0602089,17.9549266 C50.8736648,15.2074691 48.8488926,13.2884773 46.1361836,13.2884773 Z"/>
      <g transform="translate(10.65 .115)">
        <polyline fill="#A197BE" points="15.635 5.885 .35 26.885 7.348 26.885 22.35 5.885 15.635 5.885"/>
        <polygon fill="#283862" points=".35 5.885 22.35 5.885 22.35 .885 .35 .885"/>
        <polygon fill="#283862" points=".35 31.885 22.35 31.885 22.35 26.885 .35 26.885"/>
      </g>
      <g fill="#283862">
        <polygon points="1 32 6 32 6 11 1 11"/>
        <path d="M3.5000595,7 C1.57003451,7 0,5.42996549 0,3.5000595 C0,1.57003451 1.57003451,0 3.5000595,0 C5.42996549,0 7,1.57003451 7,3.5000595 C7,5.42996549 5.42996549,7 3.5000595,7 Z"/>
      </g>
    </g>
  </g>
</svg>
